<svg width="20" height="20" viewBox="0 0 20 20" fill="none" xmlns="http://www.w3.org/2000/svg">
<path id="dock_to_left" d="M2.65 19.6C1.9 19.6 1.27083 19.3458 0.7625 18.8375C0.254167 18.3292 0 17.7 0 16.95V2.65C0 1.9 0.254167 1.27083 0.7625 0.7625C1.27083 0.254167 1.9 0 2.65 0H16.95C17.7 0 18.3292 0.254167 18.8375 0.7625C19.3458 1.27083 19.6 1.9 19.6 2.65V16.95C19.6 17.7 19.3458 18.3292 18.8375 18.8375C18.3292 19.3458 17.7 19.6 16.95 19.6H2.65ZM11.3 16.95V2.65H2.65V16.95H11.3Z" fill="white"/>
</svg>
