<svg width="25" height="25" viewBox="0 0 25 25" fill="none" xmlns="http://www.w3.org/2000/svg">
<mask id="mask0_5_91" style="mask-type:alpha" maskUnits="userSpaceOnUse" x="0" y="0" width="25" height="25">
<rect x="0.308167" y="0.514221" width="24" height="24" fill="#D9D9D9"/>
</mask>
<g mask="url(#mask0_5_91)">
<path d="M5.15818 22.3142C4.40818 22.3142 3.77901 22.0601 3.27068 21.5517C2.76235 21.0434 2.50818 20.4142 2.50818 19.6642V5.36423C2.50818 4.61423 2.76235 3.98507 3.27068 3.47673C3.77901 2.9684 4.40818 2.71423 5.15818 2.71423H19.4582C20.2082 2.71423 20.8373 2.9684 21.3457 3.47673C21.854 3.98507 22.1082 4.61423 22.1082 5.36423V19.6642C22.1082 20.4142 21.854 21.0434 21.3457 21.5517C20.8373 22.0601 20.2082 22.3142 19.4582 22.3142H5.15818ZM8.15818 19.6642V5.36423H10.8082V19.6642H8.15818ZM10.8082 19.6642H19.4582V5.36423H10.8082V19.6642Z" fill="white"/>
</g>
</svg>
