<svg width="24" height="24" viewBox="0 0 24 24" fill="none" xmlns="http://www.w3.org/2000/svg">
<mask id="mask0_5_103" style={{ maskType: "alpha" }} maskUnits="userSpaceOnUse" x="0" y="0" width="24" height="24">
<rect width="24" height="24" fill="#D9D9D9"/>
</mask>
<g mask="url(#mask0_5_103)">
<path d="M4.85001 21.8C4.10001 21.8 3.47085 21.5458 2.96251 21.0375C2.45418 20.5292 2.20001 19.9 2.20001 19.15V4.85001C2.20001 4.10001 2.45418 3.47085 2.96251 2.96251C3.47085 2.45418 4.10001 2.20001 4.85001 2.20001H19.15C19.9 2.20001 20.5292 2.45418 21.0375 2.96251C21.5458 3.47085 21.8 4.10001 21.8 4.85001V19.15C21.8 19.9 21.5458 20.5292 21.0375 21.0375C20.5292 21.5458 19.9 21.8 19.15 21.8H4.85001ZM13.5 19.15V4.85001H4.85001V19.15H13.5Z" fill="white"/>
</g>
</svg>
